<svg xmlns="http://www.w3.org/2000/svg" xmlns:xlink="http://www.w3.org/1999/xlink" width="500" zoomAndPan="magnify" viewBox="0 0 375 374.999991" height="500" preserveAspectRatio="xMidYMid meet" version="1.2"><defs><clipPath id="ea0d544dda"><path d="M 260 176 L 302.671875 176 L 302.671875 205 L 260 205 Z M 260 176 "/></clipPath><clipPath id="0685d9c360"><path d="M 219 170 L 287 170 L 287 218.773438 L 219 218.773438 Z M 219 170 "/></clipPath><clipPath id="a858dddf76"><path d="M 205.171875 129 L 254 129 L 254 197 L 205.171875 197 Z M 205.171875 129 "/></clipPath><clipPath id="92a4e5b285"><path d="M 227 115.273438 L 302.671875 115.273438 L 302.671875 158 L 227 158 Z M 227 115.273438 "/></clipPath><clipPath id="30a045555c"><path d="M 145 173 L 176 173 L 176 218.773438 L 145 218.773438 Z M 145 173 "/></clipPath><clipPath id="2100fd6328"><path d="M 130.835938 130 L 183 130 L 183 202 L 130.835938 202 Z M 130.835938 130 "/></clipPath><clipPath id="40bc9fb426"><path d="M 154 115.273438 L 226 115.273438 L 226 167 L 154 167 Z M 154 115.273438 "/></clipPath><clipPath id="264a6b7349"><path d="M 195 138 L 240.335938 138 L 240.335938 218.773438 L 195 218.773438 Z M 195 138 "/></clipPath><clipPath id="e7bacdf433"><path d="M 74 173 L 104 173 L 104 218.773438 L 74 218.773438 Z M 74 173 "/></clipPath><clipPath id="0a8624adcb"><path d="M 58.972656 130 L 111 130 L 111 202 L 58.972656 202 Z M 58.972656 130 "/></clipPath><clipPath id="95781a6b8b"><path d="M 82 115.273438 L 154 115.273438 L 154 167 L 82 167 Z M 82 115.273438 "/></clipPath><clipPath id="945344d26f"><path d="M 123 138 L 168.472656 138 L 168.472656 218.773438 L 123 218.773438 Z M 123 138 "/></clipPath></defs><g id="b1135eb000"><rect x="0" width="375" y="0" height="374.999991" style="fill:#ffffff;fill-opacity:1;stroke:none;"/><rect x="0" width="375" y="0" height="374.999991" style="fill:#6fff90;fill-opacity:1;stroke:none;"/><g clip-rule="nonzero" clip-path="url(#ea0d544dda)"><path style=" stroke:none;fill-rule:evenodd;fill:#333333;fill-opacity:1;" d="M 297.644531 198.621094 C 299.527344 196.195312 301.199219 193.59375 302.628906 190.863281 L 288.757812 176.996094 C 287.589844 175.824219 285.636719 175.824219 284.46875 176.996094 L 265.679688 195.785156 L 265.613281 195.847656 C 264.007812 197.257812 262.125 198.234375 260.109375 198.753906 C 271.59375 207.335938 285.507812 204.929688 297.644531 198.621094 "/></g><g clip-rule="nonzero" clip-path="url(#0685d9c360)"><path style=" stroke:none;fill-rule:evenodd;fill:#333333;fill-opacity:1;" d="M 225.042969 170.015625 C 222.53125 173.375 220.773438 177.144531 219.972656 181.371094 C 218.605469 188.523438 220.101562 195.933594 222.832031 202.589844 C 223.527344 204.300781 224.328125 205.992188 225.195312 207.636719 C 234.253906 214.722656 245.351562 218.582031 256.859375 218.582031 L 256.988281 218.582031 C 267.714844 218.582031 278.074219 215.289062 286.722656 209.175781 C 275.558594 211.800781 264.441406 210.238281 254.992188 202.414062 L 254.90625 202.351562 C 254.019531 201.613281 253.195312 200.832031 252.371094 200.03125 L 228.46875 176.085938 C 226.777344 174.394531 225.605469 172.292969 225.042969 170.015625 "/></g><g clip-rule="nonzero" clip-path="url(#a858dddf76)"><path style=" stroke:none;fill-rule:evenodd;fill:#333333;fill-opacity:1;" d="M 253.628906 134.996094 C 242.1875 126.519531 228.25 128.90625 216.007812 135.339844 C 208.984375 144.398438 205.214844 155.453125 205.214844 166.917969 C 205.214844 177.621094 208.488281 187.9375 214.621094 196.628906 C 213.363281 191.253906 213.015625 185.707031 214.078125 180.222656 C 215.398438 173.289062 218.800781 167.308594 223.785156 162.324219 L 247.753906 138.355469 C 249.382812 136.726562 251.417969 135.578125 253.628906 134.996094 "/></g><g clip-rule="nonzero" clip-path="url(#92a4e5b285)"><path style=" stroke:none;fill-rule:evenodd;fill:#333333;fill-opacity:1;" d="M 302.628906 142.96875 C 293.722656 125.957031 276.125 115.273438 256.859375 115.273438 C 249.230469 115.273438 241.710938 116.941406 234.796875 120.214844 C 232.109375 121.492188 229.550781 122.988281 227.125 124.699219 C 239.585938 121.773438 251.699219 124.09375 261.429688 133.847656 L 284.445312 156.859375 C 285.617188 158.03125 287.566406 158.03125 288.738281 156.859375 Z M 302.628906 142.96875 "/></g><g clip-rule="nonzero" clip-path="url(#30a045555c)"><path style=" stroke:none;fill-rule:evenodd;fill:#333333;fill-opacity:1;" d="M 151.988281 213.285156 C 154.5625 215.285156 157.320312 217.054688 160.214844 218.570312 L 174.914062 203.867188 C 176.15625 202.628906 176.15625 200.5625 174.914062 199.320312 L 154.929688 179.335938 C 153.4375 177.636719 152.402344 175.636719 151.851562 173.5 C 142.757812 185.675781 145.304688 200.421875 151.988281 213.285156 "/></g><g clip-rule="nonzero" clip-path="url(#2100fd6328)"><path style=" stroke:none;fill-rule:evenodd;fill:#333333;fill-opacity:1;" d="M 182.3125 136.335938 C 178.75 133.671875 174.753906 131.808594 170.273438 130.960938 C 162.695312 129.511719 154.839844 131.097656 147.785156 133.992188 C 145.972656 134.726562 144.179688 135.578125 142.433594 136.496094 C 134.921875 146.097656 130.835938 157.859375 130.835938 170.054688 L 130.835938 170.195312 C 130.835938 181.5625 134.324219 192.542969 140.804688 201.710938 C 138.023438 189.878906 139.679688 178.097656 147.96875 168.082031 L 148.039062 167.988281 C 148.820312 167.046875 149.648438 166.175781 150.496094 165.300781 L 175.878906 139.964844 C 177.671875 138.171875 179.898438 136.933594 182.3125 136.335938 "/></g><g clip-rule="nonzero" clip-path="url(#40bc9fb426)"><path style=" stroke:none;fill-rule:evenodd;fill:#333333;fill-opacity:1;" d="M 219.429688 166.632812 C 228.414062 154.503906 225.886719 139.734375 219.0625 126.757812 C 209.460938 119.3125 197.746094 115.316406 185.597656 115.316406 C 174.25 115.316406 163.316406 118.785156 154.101562 125.285156 C 159.800781 123.953125 165.679688 123.585938 171.492188 124.710938 C 178.84375 126.113281 185.183594 129.71875 190.464844 135.003906 L 215.871094 160.410156 C 217.59375 162.132812 218.8125 164.289062 219.429688 166.632812 "/></g><g clip-rule="nonzero" clip-path="url(#264a6b7349)"><path style=" stroke:none;fill-rule:evenodd;fill:#333333;fill-opacity:1;" d="M 210.976562 218.570312 C 229.011719 209.128906 240.335938 190.476562 240.335938 170.054688 C 240.335938 161.96875 238.566406 154 235.097656 146.671875 C 233.742188 143.824219 232.15625 141.113281 230.34375 138.539062 C 233.441406 151.75 230.984375 164.589844 220.648438 174.902344 L 196.253906 199.296875 C 195.015625 200.539062 195.015625 202.605469 196.253906 203.84375 Z M 210.976562 218.570312 "/></g><g clip-rule="nonzero" clip-path="url(#e7bacdf433)"><path style=" stroke:none;fill-rule:evenodd;fill:#333333;fill-opacity:1;" d="M 80.128906 213.285156 C 82.703125 215.285156 85.457031 217.054688 88.351562 218.570312 L 103.054688 203.867188 C 104.292969 202.628906 104.292969 200.5625 103.054688 199.320312 L 83.136719 179.40625 L 83.070312 179.335938 C 81.574219 177.636719 80.542969 175.636719 79.992188 173.5 C 70.894531 185.675781 73.445312 200.421875 80.128906 213.285156 "/></g><g clip-rule="nonzero" clip-path="url(#0a8624adcb)"><path style=" stroke:none;fill-rule:evenodd;fill:#333333;fill-opacity:1;" d="M 110.449219 136.335938 C 106.890625 133.671875 102.894531 131.808594 98.414062 130.960938 C 90.832031 129.511719 82.976562 131.097656 75.925781 133.992188 C 74.109375 134.726562 72.320312 135.578125 70.574219 136.496094 C 63.0625 146.097656 58.972656 157.859375 58.972656 170.054688 L 58.972656 170.195312 C 58.972656 181.5625 62.464844 192.542969 68.941406 201.710938 C 66.164062 189.878906 67.816406 178.097656 76.109375 168.082031 L 76.179688 167.988281 C 76.960938 167.046875 77.785156 166.175781 78.636719 165.300781 L 104.019531 139.964844 C 105.808594 138.171875 108.039062 136.933594 110.449219 136.335938 "/></g><g clip-rule="nonzero" clip-path="url(#95781a6b8b)"><path style=" stroke:none;fill-rule:evenodd;fill:#333333;fill-opacity:1;" d="M 147.570312 166.632812 C 156.550781 154.503906 154.023438 139.734375 147.203125 126.757812 C 137.601562 119.3125 125.886719 115.316406 113.734375 115.316406 C 102.386719 115.316406 91.453125 118.785156 82.242188 125.285156 C 87.9375 123.953125 93.820312 123.585938 99.628906 124.710938 C 106.980469 126.113281 113.320312 129.71875 118.605469 135.003906 L 144.007812 160.410156 C 145.734375 162.132812 146.949219 164.289062 147.570312 166.632812 "/></g><g clip-rule="nonzero" clip-path="url(#945344d26f)"><path style=" stroke:none;fill-rule:evenodd;fill:#333333;fill-opacity:1;" d="M 139.117188 218.570312 C 157.148438 209.128906 168.472656 190.476562 168.472656 170.054688 C 168.472656 161.96875 166.703125 154 163.234375 146.671875 C 161.878906 143.824219 160.296875 141.113281 158.480469 138.539062 C 161.582031 151.75 159.125 164.589844 148.789062 174.902344 L 124.394531 199.296875 C 123.152344 200.539062 123.152344 202.605469 124.394531 203.84375 Z M 139.117188 218.570312 "/></g><g style="fill:#333333;fill-opacity:1;"><g transform="translate(58.716291, 251.170656)"><path style="stroke:none" d="M 12.21875 -21.046875 L 20.71875 0 L 15.5625 0 L 14.015625 -4.203125 L 6 -4.203125 L 4.4375 0 L -0.71875 0 L 7.78125 -21.046875 Z M 12.375 -8.421875 L 10.03125 -14.546875 L 9.984375 -14.546875 L 7.625 -8.421875 Z M 12.375 -8.421875 "/></g></g><g style="fill:#333333;fill-opacity:1;"><g transform="translate(78.72498, 251.170656)"><path style="stroke:none" d="M 5.796875 -13.09375 L 5.796875 -6.859375 C 5.796875 -5.566406 5.988281 -4.648438 6.375 -4.109375 C 6.769531 -3.566406 7.429688 -3.296875 8.359375 -3.296875 C 9.296875 -3.296875 9.960938 -3.566406 10.359375 -4.109375 C 10.753906 -4.648438 10.953125 -5.566406 10.953125 -6.859375 L 10.953125 -13.09375 L 15.46875 -13.09375 L 15.46875 -5.765625 C 15.46875 -3.585938 14.898438 -2.019531 13.765625 -1.0625 C 12.628906 -0.101562 10.828125 0.375 8.359375 0.375 C 5.898438 0.375 4.101562 -0.101562 2.96875 -1.0625 C 1.84375 -2.019531 1.28125 -3.585938 1.28125 -5.765625 L 1.28125 -13.09375 Z M 5.796875 -13.09375 "/></g></g><g style="fill:#333333;fill-opacity:1;"><g transform="translate(95.339333, 251.170656)"><path style="stroke:none" d="M 2.296875 -13.09375 L 2.296875 -17.96875 L 6.8125 -17.96875 L 6.8125 -13.09375 L 9.5625 -13.09375 L 9.5625 -9.640625 L 6.8125 -9.640625 L 6.8125 -5.484375 C 6.8125 -4.273438 7.148438 -3.671875 7.828125 -3.671875 C 8.003906 -3.671875 8.1875 -3.703125 8.375 -3.765625 C 8.5625 -3.835938 8.703125 -3.910156 8.796875 -3.984375 L 8.953125 -4.078125 L 10.078125 -0.4375 C 9.109375 0.101562 8.003906 0.375 6.765625 0.375 C 5.910156 0.375 5.175781 0.226562 4.5625 -0.0625 C 3.957031 -0.363281 3.492188 -0.765625 3.171875 -1.265625 C 2.859375 -1.765625 2.632812 -2.289062 2.5 -2.84375 C 2.363281 -3.394531 2.296875 -3.988281 2.296875 -4.625 L 2.296875 -9.640625 L 0.40625 -9.640625 L 0.40625 -13.09375 Z M 2.296875 -13.09375 "/></g></g><g style="fill:#333333;fill-opacity:1;"><g transform="translate(105.420237, 251.170656)"><path style="stroke:none" d="M 2.765625 -1.5625 C 1.316406 -2.851562 0.59375 -4.507812 0.59375 -6.53125 C 0.59375 -8.550781 1.347656 -10.210938 2.859375 -11.515625 C 4.367188 -12.816406 6.238281 -13.46875 8.46875 -13.46875 C 10.664062 -13.46875 12.515625 -12.8125 14.015625 -11.5 C 15.523438 -10.195312 16.28125 -8.539062 16.28125 -6.53125 C 16.28125 -4.519531 15.539062 -2.863281 14.0625 -1.5625 C 12.59375 -0.269531 10.726562 0.375 8.46875 0.375 C 6.125 0.375 4.222656 -0.269531 2.765625 -1.5625 Z M 6.265625 -8.75 C 5.679688 -8.175781 5.390625 -7.4375 5.390625 -6.53125 C 5.390625 -5.625 5.664062 -4.882812 6.21875 -4.3125 C 6.78125 -3.75 7.523438 -3.46875 8.453125 -3.46875 C 9.328125 -3.46875 10.050781 -3.753906 10.625 -4.328125 C 11.195312 -4.910156 11.484375 -5.644531 11.484375 -6.53125 C 11.484375 -7.4375 11.1875 -8.175781 10.59375 -8.75 C 10.007812 -9.332031 9.296875 -9.625 8.453125 -9.625 C 7.578125 -9.625 6.847656 -9.332031 6.265625 -8.75 Z M 6.265625 -8.75 "/></g></g><g style="fill:#333333;fill-opacity:1;"><g transform="translate(122.289808, 251.170656)"><path style="stroke:none" d="M 12.21875 -21.046875 L 20.71875 0 L 15.5625 0 L 14.015625 -4.203125 L 6 -4.203125 L 4.4375 0 L -0.71875 0 L 7.78125 -21.046875 Z M 12.375 -8.421875 L 10.03125 -14.546875 L 9.984375 -14.546875 L 7.625 -8.421875 Z M 12.375 -8.421875 "/></g></g><g style="fill:#333333;fill-opacity:1;"><g transform="translate(142.298497, 251.170656)"><path style="stroke:none" d="M 6.328125 -21.046875 L 6.328125 0 L 1.53125 0 L 1.53125 -21.046875 Z M 6.328125 -21.046875 "/></g></g><g style="fill:#333333;fill-opacity:1;"><g transform="translate(149.342335, 251.170656)"><path style="stroke:none" d="M 12.734375 -4.34375 C 13.460938 -4.34375 14.171875 -4.453125 14.859375 -4.671875 C 15.546875 -4.890625 16.050781 -5.101562 16.375 -5.3125 L 16.859375 -5.640625 L 18.90625 -1.5625 C 18.84375 -1.507812 18.75 -1.4375 18.625 -1.34375 C 18.507812 -1.257812 18.234375 -1.101562 17.796875 -0.875 C 17.359375 -0.644531 16.894531 -0.445312 16.40625 -0.28125 C 15.914062 -0.113281 15.269531 0.0351562 14.46875 0.171875 C 13.664062 0.304688 12.84375 0.375 12 0.375 C 10.039062 0.375 8.179688 -0.101562 6.421875 -1.0625 C 4.671875 -2.019531 3.257812 -3.335938 2.1875 -5.015625 C 1.125 -6.703125 0.59375 -8.523438 0.59375 -10.484375 C 0.59375 -11.960938 0.90625 -13.382812 1.53125 -14.75 C 2.15625 -16.113281 2.988281 -17.28125 4.03125 -18.25 C 5.082031 -19.21875 6.304688 -19.988281 7.703125 -20.5625 C 9.097656 -21.144531 10.53125 -21.4375 12 -21.4375 C 13.351562 -21.4375 14.601562 -21.273438 15.75 -20.953125 C 16.90625 -20.628906 17.71875 -20.304688 18.1875 -19.984375 L 18.90625 -19.5 L 16.859375 -15.40625 C 16.742188 -15.507812 16.566406 -15.632812 16.328125 -15.78125 C 16.085938 -15.925781 15.609375 -16.117188 14.890625 -16.359375 C 14.179688 -16.597656 13.460938 -16.71875 12.734375 -16.71875 C 11.578125 -16.71875 10.535156 -16.53125 9.609375 -16.15625 C 8.691406 -15.78125 7.96875 -15.285156 7.4375 -14.671875 C 6.90625 -14.054688 6.5 -13.394531 6.21875 -12.6875 C 5.9375 -11.988281 5.796875 -11.269531 5.796875 -10.53125 C 5.796875 -8.9375 6.394531 -7.503906 7.59375 -6.234375 C 8.789062 -4.972656 10.503906 -4.34375 12.734375 -4.34375 Z M 12.734375 -4.34375 "/></g></g><g style="fill:#333333;fill-opacity:1;"><g transform="translate(168.559862, 251.170656)"><path style="stroke:none" d="M 2.765625 -1.5625 C 1.316406 -2.851562 0.59375 -4.507812 0.59375 -6.53125 C 0.59375 -8.550781 1.347656 -10.210938 2.859375 -11.515625 C 4.367188 -12.816406 6.238281 -13.46875 8.46875 -13.46875 C 10.664062 -13.46875 12.515625 -12.8125 14.015625 -11.5 C 15.523438 -10.195312 16.28125 -8.539062 16.28125 -6.53125 C 16.28125 -4.519531 15.539062 -2.863281 14.0625 -1.5625 C 12.59375 -0.269531 10.726562 0.375 8.46875 0.375 C 6.125 0.375 4.222656 -0.269531 2.765625 -1.5625 Z M 6.265625 -8.75 C 5.679688 -8.175781 5.390625 -7.4375 5.390625 -6.53125 C 5.390625 -5.625 5.664062 -4.882812 6.21875 -4.3125 C 6.78125 -3.75 7.523438 -3.46875 8.453125 -3.46875 C 9.328125 -3.46875 10.050781 -3.753906 10.625 -4.328125 C 11.195312 -4.910156 11.484375 -5.644531 11.484375 -6.53125 C 11.484375 -7.4375 11.1875 -8.175781 10.59375 -8.75 C 10.007812 -9.332031 9.296875 -9.625 8.453125 -9.625 C 7.578125 -9.625 6.847656 -9.332031 6.265625 -8.75 Z M 6.265625 -8.75 "/></g></g><g style="fill:#333333;fill-opacity:1;"><g transform="translate(185.37838, 251.170656)"><path style="stroke:none" d="M 1.53125 0 L 1.53125 -13.09375 L 6.046875 -13.09375 L 6.046875 -11.71875 L 6.09375 -11.71875 C 7.269531 -12.882812 8.519531 -13.46875 9.84375 -13.46875 C 10.488281 -13.46875 11.128906 -13.382812 11.765625 -13.21875 C 12.410156 -13.050781 13.023438 -12.785156 13.609375 -12.421875 C 14.203125 -12.066406 14.679688 -11.5625 15.046875 -10.90625 C 15.410156 -10.25 15.59375 -9.488281 15.59375 -8.625 L 15.59375 0 L 11.078125 0 L 11.078125 -7.40625 C 11.078125 -8.082031 10.859375 -8.675781 10.421875 -9.1875 C 9.984375 -9.695312 9.414062 -9.953125 8.71875 -9.953125 C 8.039062 -9.953125 7.425781 -9.6875 6.875 -9.15625 C 6.320312 -8.632812 6.046875 -8.050781 6.046875 -7.40625 L 6.046875 0 Z M 1.53125 0 "/></g></g><g style="fill:#333333;fill-opacity:1;"><g transform="translate(202.120345, 251.170656)"><path style="stroke:none" d="M 7.21875 -13.46875 C 7.96875 -13.46875 8.707031 -13.382812 9.4375 -13.21875 C 10.164062 -13.050781 10.710938 -12.878906 11.078125 -12.703125 L 11.609375 -12.453125 L 10.125 -9.484375 C 9.101562 -10.035156 8.132812 -10.3125 7.21875 -10.3125 C 6.707031 -10.3125 6.34375 -10.253906 6.125 -10.140625 C 5.914062 -10.035156 5.8125 -9.828125 5.8125 -9.515625 C 5.8125 -9.453125 5.820312 -9.382812 5.84375 -9.3125 C 5.863281 -9.25 5.894531 -9.1875 5.9375 -9.125 C 5.988281 -9.0625 6.035156 -9.007812 6.078125 -8.96875 C 6.128906 -8.925781 6.203125 -8.878906 6.296875 -8.828125 C 6.398438 -8.773438 6.484375 -8.734375 6.546875 -8.703125 C 6.609375 -8.679688 6.707031 -8.644531 6.84375 -8.59375 C 6.976562 -8.539062 7.078125 -8.503906 7.140625 -8.484375 C 7.210938 -8.460938 7.328125 -8.425781 7.484375 -8.375 C 7.648438 -8.320312 7.773438 -8.285156 7.859375 -8.265625 C 8.390625 -8.109375 8.847656 -7.9375 9.234375 -7.75 C 9.628906 -7.5625 10.039062 -7.304688 10.46875 -6.984375 C 10.90625 -6.660156 11.242188 -6.253906 11.484375 -5.765625 C 11.722656 -5.273438 11.84375 -4.710938 11.84375 -4.078125 C 11.84375 -1.109375 9.773438 0.375 5.640625 0.375 C 4.703125 0.375 3.8125 0.234375 2.96875 -0.046875 C 2.125 -0.335938 1.515625 -0.628906 1.140625 -0.921875 L 0.59375 -1.375 L 2.421875 -4.46875 C 2.554688 -4.34375 2.734375 -4.195312 2.953125 -4.03125 C 3.179688 -3.875 3.582031 -3.65625 4.15625 -3.375 C 4.738281 -3.09375 5.242188 -2.953125 5.671875 -2.953125 C 6.597656 -2.953125 7.0625 -3.269531 7.0625 -3.90625 C 7.0625 -4.195312 6.941406 -4.421875 6.703125 -4.578125 C 6.472656 -4.742188 6.070312 -4.925781 5.5 -5.125 C 4.925781 -5.332031 4.476562 -5.519531 4.15625 -5.6875 C 3.34375 -6.113281 2.695312 -6.59375 2.21875 -7.125 C 1.738281 -7.664062 1.5 -8.378906 1.5 -9.265625 C 1.5 -10.585938 2.015625 -11.617188 3.046875 -12.359375 C 4.078125 -13.097656 5.46875 -13.46875 7.21875 -13.46875 Z M 7.21875 -13.46875 "/></g></g><g style="fill:#333333;fill-opacity:1;"><g transform="translate(214.676818, 251.170656)"><path style="stroke:none" d="M 5.796875 -13.09375 L 5.796875 -6.859375 C 5.796875 -5.566406 5.988281 -4.648438 6.375 -4.109375 C 6.769531 -3.566406 7.429688 -3.296875 8.359375 -3.296875 C 9.296875 -3.296875 9.960938 -3.566406 10.359375 -4.109375 C 10.753906 -4.648438 10.953125 -5.566406 10.953125 -6.859375 L 10.953125 -13.09375 L 15.46875 -13.09375 L 15.46875 -5.765625 C 15.46875 -3.585938 14.898438 -2.019531 13.765625 -1.0625 C 12.628906 -0.101562 10.828125 0.375 8.359375 0.375 C 5.898438 0.375 4.101562 -0.101562 2.96875 -1.0625 C 1.84375 -2.019531 1.28125 -3.585938 1.28125 -5.765625 L 1.28125 -13.09375 Z M 5.796875 -13.09375 "/></g></g><g style="fill:#333333;fill-opacity:1;"><g transform="translate(231.418783, 251.170656)"><path style="stroke:none" d="M 1.53125 0 L 1.53125 -21.9375 L 6.046875 -21.9375 L 6.046875 0 Z M 1.53125 0 "/></g></g><g style="fill:#333333;fill-opacity:1;"><g transform="translate(238.998598, 251.170656)"><path style="stroke:none" d="M 2.296875 -13.09375 L 2.296875 -17.96875 L 6.8125 -17.96875 L 6.8125 -13.09375 L 9.5625 -13.09375 L 9.5625 -9.640625 L 6.8125 -9.640625 L 6.8125 -5.484375 C 6.8125 -4.273438 7.148438 -3.671875 7.828125 -3.671875 C 8.003906 -3.671875 8.1875 -3.703125 8.375 -3.765625 C 8.5625 -3.835938 8.703125 -3.910156 8.796875 -3.984375 L 8.953125 -4.078125 L 10.078125 -0.4375 C 9.109375 0.101562 8.003906 0.375 6.765625 0.375 C 5.910156 0.375 5.175781 0.226562 4.5625 -0.0625 C 3.957031 -0.363281 3.492188 -0.765625 3.171875 -1.265625 C 2.859375 -1.765625 2.632812 -2.289062 2.5 -2.84375 C 2.363281 -3.394531 2.296875 -3.988281 2.296875 -4.625 L 2.296875 -9.640625 L 0.40625 -9.640625 L 0.40625 -13.09375 Z M 2.296875 -13.09375 "/></g></g><g style="fill:#333333;fill-opacity:1;"><g transform="translate(249.079515, 251.170656)"><path style="stroke:none" d="M 4.4375 -5.453125 C 5.257812 -5.453125 5.953125 -5.164062 6.515625 -4.59375 C 7.085938 -4.03125 7.375 -3.34375 7.375 -2.53125 C 7.375 -1.726562 7.085938 -1.039062 6.515625 -0.46875 C 5.953125 0.09375 5.257812 0.375 4.4375 0.375 C 3.632812 0.375 2.945312 0.09375 2.375 -0.46875 C 1.8125 -1.039062 1.53125 -1.726562 1.53125 -2.53125 C 1.53125 -3.34375 1.8125 -4.03125 2.375 -4.59375 C 2.945312 -5.164062 3.632812 -5.453125 4.4375 -5.453125 Z M 4.4375 -5.453125 "/></g></g><g style="fill:#333333;fill-opacity:1;"><g transform="translate(257.986441, 251.170656)"><path style="stroke:none" d="M 2.765625 -1.5625 C 1.316406 -2.851562 0.59375 -4.507812 0.59375 -6.53125 C 0.59375 -8.550781 1.347656 -10.210938 2.859375 -11.515625 C 4.367188 -12.816406 6.238281 -13.46875 8.46875 -13.46875 C 10.664062 -13.46875 12.515625 -12.8125 14.015625 -11.5 C 15.523438 -10.195312 16.28125 -8.539062 16.28125 -6.53125 C 16.28125 -4.519531 15.539062 -2.863281 14.0625 -1.5625 C 12.59375 -0.269531 10.726562 0.375 8.46875 0.375 C 6.125 0.375 4.222656 -0.269531 2.765625 -1.5625 Z M 6.265625 -8.75 C 5.679688 -8.175781 5.390625 -7.4375 5.390625 -6.53125 C 5.390625 -5.625 5.664062 -4.882812 6.21875 -4.3125 C 6.78125 -3.75 7.523438 -3.46875 8.453125 -3.46875 C 9.328125 -3.46875 10.050781 -3.753906 10.625 -4.328125 C 11.195312 -4.910156 11.484375 -5.644531 11.484375 -6.53125 C 11.484375 -7.4375 11.1875 -8.175781 10.59375 -8.75 C 10.007812 -9.332031 9.296875 -9.625 8.453125 -9.625 C 7.578125 -9.625 6.847656 -9.332031 6.265625 -8.75 Z M 6.265625 -8.75 "/></g></g><g style="fill:#333333;fill-opacity:1;"><g transform="translate(274.804965, 251.170656)"><path style="stroke:none" d="M 1.53125 0 L 1.53125 -13.09375 L 6.046875 -13.09375 L 6.046875 -11.203125 L 6.09375 -11.203125 C 6.132812 -11.265625 6.191406 -11.347656 6.265625 -11.453125 C 6.335938 -11.554688 6.5 -11.734375 6.75 -11.984375 C 7.007812 -12.242188 7.285156 -12.472656 7.578125 -12.671875 C 7.867188 -12.878906 8.242188 -13.0625 8.703125 -13.21875 C 9.160156 -13.382812 9.628906 -13.46875 10.109375 -13.46875 C 10.597656 -13.46875 11.078125 -13.398438 11.546875 -13.265625 C 12.023438 -13.128906 12.378906 -12.992188 12.609375 -12.859375 L 12.96875 -12.65625 L 11.078125 -8.828125 C 10.515625 -9.304688 9.726562 -9.546875 8.71875 -9.546875 C 8.175781 -9.546875 7.707031 -9.425781 7.3125 -9.1875 C 6.925781 -8.945312 6.648438 -8.65625 6.484375 -8.3125 C 6.328125 -7.976562 6.210938 -7.691406 6.140625 -7.453125 C 6.078125 -7.210938 6.046875 -7.023438 6.046875 -6.890625 L 6.046875 0 Z M 1.53125 0 "/></g></g><g style="fill:#333333;fill-opacity:1;"><g transform="translate(287.310372, 251.170656)"><path style="stroke:none" d="M 0.9375 3.21875 L 4.640625 1.40625 C 5.328125 2.53125 6.507812 3.09375 8.1875 3.09375 C 8.96875 3.09375 9.691406 2.835938 10.359375 2.328125 C 11.035156 1.828125 11.375 1.0625 11.375 0.03125 L 11.375 -0.9375 C 10.582031 -0.0625 9.15625 0.375 7.09375 0.375 C 5.207031 0.375 3.648438 -0.289062 2.421875 -1.625 C 1.203125 -2.957031 0.59375 -4.59375 0.59375 -6.53125 C 0.59375 -8.46875 1.203125 -10.109375 2.421875 -11.453125 C 3.648438 -12.796875 5.207031 -13.46875 7.09375 -13.46875 C 8.78125 -13.46875 10.179688 -12.953125 11.296875 -11.921875 L 11.375 -11.921875 L 11.375 -13.09375 L 15.890625 -13.09375 L 15.890625 0.359375 C 15.890625 2.484375 15.179688 4.125 13.765625 5.28125 C 12.359375 6.4375 10.5 7.015625 8.1875 7.015625 C 4.445312 7.015625 2.03125 5.75 0.9375 3.21875 Z M 6.265625 -8.75 C 5.679688 -8.175781 5.390625 -7.4375 5.390625 -6.53125 C 5.390625 -5.625 5.664062 -4.882812 6.21875 -4.3125 C 6.78125 -3.75 7.523438 -3.46875 8.453125 -3.46875 C 9.328125 -3.46875 10.050781 -3.753906 10.625 -4.328125 C 11.195312 -4.910156 11.484375 -5.644531 11.484375 -6.53125 C 11.484375 -7.4375 11.1875 -8.175781 10.59375 -8.75 C 10.007812 -9.332031 9.296875 -9.625 8.453125 -9.625 C 7.578125 -9.625 6.847656 -9.332031 6.265625 -8.75 Z M 6.265625 -8.75 "/></g></g></g></svg>