<svg xmlns="http://www.w3.org/2000/svg" xmlns:xlink="http://www.w3.org/1999/xlink" width="500" zoomAndPan="magnify" viewBox="0 0 375 374.999991" height="500" preserveAspectRatio="xMidYMid meet" version="1.2"><defs><clipPath id="f531eae1bb"><path d="M 58 190 L 75 190 L 75 214.585938 L 58 214.585938 Z M 58 190 "/></clipPath><clipPath id="7cdd3c421b"><path d="M 51.089844 168 L 78 168 L 78 206 L 51.089844 206 Z M 51.089844 168 "/></clipPath><clipPath id="3ea9b1b3fb"><path d="M 63 160.585938 L 101 160.585938 L 101 188 L 63 188 Z M 63 160.585938 "/></clipPath><clipPath id="8c937e17a1"><path d="M 84 172 L 108.089844 172 L 108.089844 214.585938 L 84 214.585938 Z M 84 172 "/></clipPath></defs><g id="db961284f7"><rect x="0" width="375" y="0" height="374.999991" style="fill:#333333;fill-opacity:1;stroke:none;"/><g style="fill:#6fff90;fill-opacity:1;"><g transform="translate(116.456394, 198.015927)"><path style="stroke:none" d="M 10.296875 -17.71875 L 17.453125 0 L 13.109375 0 L 11.796875 -3.546875 L 5.046875 -3.546875 L 3.734375 0 L -0.609375 0 L 6.546875 -17.71875 Z M 10.421875 -7.09375 L 8.4375 -12.25 L 8.40625 -12.25 L 6.421875 -7.09375 Z M 10.421875 -7.09375 "/></g></g><g style="fill:#6fff90;fill-opacity:1;"><g transform="translate(133.301646, 198.015927)"><path style="stroke:none" d="M 4.875 -11.015625 L 4.875 -5.78125 C 4.875 -4.6875 5.035156 -3.910156 5.359375 -3.453125 C 5.691406 -2.992188 6.253906 -2.765625 7.046875 -2.765625 C 7.835938 -2.765625 8.394531 -2.992188 8.71875 -3.453125 C 9.050781 -3.910156 9.21875 -4.6875 9.21875 -5.78125 L 9.21875 -11.015625 L 13.015625 -11.015625 L 13.015625 -4.859375 C 13.015625 -3.023438 12.535156 -1.703125 11.578125 -0.890625 C 10.628906 -0.078125 9.117188 0.328125 7.046875 0.328125 C 4.972656 0.328125 3.457031 -0.078125 2.5 -0.890625 C 1.550781 -1.703125 1.078125 -3.023438 1.078125 -4.859375 L 1.078125 -11.015625 Z M 4.875 -11.015625 "/></g></g><g style="fill:#6fff90;fill-opacity:1;"><g transform="translate(147.289216, 198.015927)"><path style="stroke:none" d="M 1.9375 -11.015625 L 1.9375 -15.125 L 5.734375 -15.125 L 5.734375 -11.015625 L 8.0625 -11.015625 L 8.0625 -8.125 L 5.734375 -8.125 L 5.734375 -4.625 C 5.734375 -3.601562 6.019531 -3.09375 6.59375 -3.09375 C 6.738281 -3.09375 6.890625 -3.117188 7.046875 -3.171875 C 7.203125 -3.234375 7.320312 -3.296875 7.40625 -3.359375 L 7.546875 -3.4375 L 8.484375 -0.359375 C 7.671875 0.0976562 6.738281 0.328125 5.6875 0.328125 C 4.976562 0.328125 4.363281 0.203125 3.84375 -0.046875 C 3.332031 -0.304688 2.941406 -0.644531 2.671875 -1.0625 C 2.410156 -1.488281 2.222656 -1.929688 2.109375 -2.390625 C 1.992188 -2.859375 1.9375 -3.359375 1.9375 -3.890625 L 1.9375 -8.125 L 0.34375 -8.125 L 0.34375 -11.015625 Z M 1.9375 -11.015625 "/></g></g><g style="fill:#6fff90;fill-opacity:1;"><g transform="translate(155.776296, 198.015927)"><path style="stroke:none" d="M 2.328125 -1.296875 C 1.109375 -2.390625 0.5 -3.789062 0.5 -5.5 C 0.5 -7.207031 1.132812 -8.609375 2.40625 -9.703125 C 3.675781 -10.796875 5.253906 -11.34375 7.140625 -11.34375 C 8.984375 -11.34375 10.535156 -10.789062 11.796875 -9.6875 C 13.066406 -8.582031 13.703125 -7.1875 13.703125 -5.5 C 13.703125 -3.8125 13.082031 -2.414062 11.84375 -1.3125 C 10.601562 -0.21875 9.035156 0.328125 7.140625 0.328125 C 5.160156 0.328125 3.554688 -0.210938 2.328125 -1.296875 Z M 5.265625 -7.359375 C 4.773438 -6.878906 4.53125 -6.257812 4.53125 -5.5 C 4.53125 -4.738281 4.765625 -4.117188 5.234375 -3.640625 C 5.710938 -3.160156 6.335938 -2.921875 7.109375 -2.921875 C 7.859375 -2.921875 8.472656 -3.164062 8.953125 -3.65625 C 9.429688 -4.144531 9.671875 -4.757812 9.671875 -5.5 C 9.671875 -6.257812 9.421875 -6.878906 8.921875 -7.359375 C 8.429688 -7.847656 7.828125 -8.09375 7.109375 -8.09375 C 6.378906 -8.09375 5.765625 -7.847656 5.265625 -7.359375 Z M 5.265625 -7.359375 "/></g></g><g style="fill:#6fff90;fill-opacity:1;"><g transform="translate(169.978734, 198.015927)"><path style="stroke:none" d="M 10.296875 -17.71875 L 17.453125 0 L 13.109375 0 L 11.796875 -3.546875 L 5.046875 -3.546875 L 3.734375 0 L -0.609375 0 L 6.546875 -17.71875 Z M 10.421875 -7.09375 L 8.4375 -12.25 L 8.40625 -12.25 L 6.421875 -7.09375 Z M 10.421875 -7.09375 "/></g></g><g style="fill:#6fff90;fill-opacity:1;"><g transform="translate(186.823985, 198.015927)"><path style="stroke:none" d="M 5.328125 -17.71875 L 5.328125 0 L 1.296875 0 L 1.296875 -17.71875 Z M 5.328125 -17.71875 "/></g></g><g style="fill:#6fff90;fill-opacity:1;"><g transform="translate(192.75417, 198.015927)"><path style="stroke:none" d="M 10.71875 -3.65625 C 11.332031 -3.65625 11.929688 -3.75 12.515625 -3.9375 C 13.097656 -4.125 13.523438 -4.300781 13.796875 -4.46875 L 14.203125 -4.75 L 15.921875 -1.3125 C 15.859375 -1.269531 15.773438 -1.210938 15.671875 -1.140625 C 15.578125 -1.066406 15.347656 -0.929688 14.984375 -0.734375 C 14.617188 -0.546875 14.226562 -0.378906 13.8125 -0.234375 C 13.394531 -0.0859375 12.847656 0.0390625 12.171875 0.15625 C 11.503906 0.269531 10.8125 0.328125 10.09375 0.328125 C 8.445312 0.328125 6.882812 -0.078125 5.40625 -0.890625 C 3.9375 -1.703125 2.75 -2.816406 1.84375 -4.234375 C 0.945312 -5.648438 0.5 -7.179688 0.5 -8.828125 C 0.5 -10.078125 0.757812 -11.273438 1.28125 -12.421875 C 1.8125 -13.566406 2.519531 -14.546875 3.40625 -15.359375 C 4.289062 -16.179688 5.316406 -16.832031 6.484375 -17.3125 C 7.660156 -17.800781 8.863281 -18.046875 10.09375 -18.046875 C 11.238281 -18.046875 12.296875 -17.910156 13.265625 -17.640625 C 14.234375 -17.367188 14.914062 -17.097656 15.3125 -16.828125 L 15.921875 -16.421875 L 14.203125 -12.984375 C 14.097656 -13.066406 13.945312 -13.164062 13.75 -13.28125 C 13.550781 -13.40625 13.148438 -13.566406 12.546875 -13.765625 C 11.941406 -13.972656 11.332031 -14.078125 10.71875 -14.078125 C 9.75 -14.078125 8.875 -13.914062 8.09375 -13.59375 C 7.320312 -13.28125 6.710938 -12.863281 6.265625 -12.34375 C 5.816406 -11.832031 5.472656 -11.28125 5.234375 -10.6875 C 4.992188 -10.09375 4.875 -9.488281 4.875 -8.875 C 4.875 -7.53125 5.378906 -6.320312 6.390625 -5.25 C 7.398438 -4.1875 8.84375 -3.65625 10.71875 -3.65625 Z M 10.71875 -3.65625 "/></g></g><g style="fill:#6fff90;fill-opacity:1;"><g transform="translate(208.933344, 198.015927)"><path style="stroke:none" d="M 2.328125 -1.296875 C 1.109375 -2.390625 0.5 -3.789062 0.5 -5.5 C 0.5 -7.207031 1.132812 -8.609375 2.40625 -9.703125 C 3.675781 -10.796875 5.253906 -11.34375 7.140625 -11.34375 C 8.984375 -11.34375 10.535156 -10.789062 11.796875 -9.6875 C 13.066406 -8.582031 13.703125 -7.1875 13.703125 -5.5 C 13.703125 -3.8125 13.082031 -2.414062 11.84375 -1.3125 C 10.601562 -0.21875 9.035156 0.328125 7.140625 0.328125 C 5.160156 0.328125 3.554688 -0.210938 2.328125 -1.296875 Z M 5.265625 -7.359375 C 4.773438 -6.878906 4.53125 -6.257812 4.53125 -5.5 C 4.53125 -4.738281 4.765625 -4.117188 5.234375 -3.640625 C 5.710938 -3.160156 6.335938 -2.921875 7.109375 -2.921875 C 7.859375 -2.921875 8.472656 -3.164062 8.953125 -3.65625 C 9.429688 -4.144531 9.671875 -4.757812 9.671875 -5.5 C 9.671875 -6.257812 9.421875 -6.878906 8.921875 -7.359375 C 8.429688 -7.847656 7.828125 -8.09375 7.109375 -8.09375 C 6.378906 -8.09375 5.765625 -7.847656 5.265625 -7.359375 Z M 5.265625 -7.359375 "/></g></g><g style="fill:#6fff90;fill-opacity:1;"><g transform="translate(223.0928, 198.015927)"><path style="stroke:none" d="M 1.296875 0 L 1.296875 -11.015625 L 5.09375 -11.015625 L 5.09375 -9.859375 L 5.140625 -9.859375 C 6.128906 -10.847656 7.179688 -11.34375 8.296875 -11.34375 C 8.835938 -11.34375 9.375 -11.269531 9.90625 -11.125 C 10.445312 -10.988281 10.960938 -10.769531 11.453125 -10.46875 C 11.953125 -10.164062 12.351562 -9.738281 12.65625 -9.1875 C 12.96875 -8.632812 13.125 -7.992188 13.125 -7.265625 L 13.125 0 L 9.328125 0 L 9.328125 -6.234375 C 9.328125 -6.804688 9.144531 -7.304688 8.78125 -7.734375 C 8.414062 -8.160156 7.9375 -8.375 7.34375 -8.375 C 6.769531 -8.375 6.25 -8.148438 5.78125 -7.703125 C 5.320312 -7.265625 5.09375 -6.773438 5.09375 -6.234375 L 5.09375 0 Z M 1.296875 0 "/></g></g><g style="fill:#6fff90;fill-opacity:1;"><g transform="translate(237.187807, 198.015927)"><path style="stroke:none" d="M 6.078125 -11.34375 C 6.710938 -11.34375 7.335938 -11.269531 7.953125 -11.125 C 8.566406 -10.988281 9.023438 -10.847656 9.328125 -10.703125 L 9.78125 -10.484375 L 8.53125 -8 C 7.664062 -8.457031 6.847656 -8.6875 6.078125 -8.6875 C 5.648438 -8.6875 5.347656 -8.640625 5.171875 -8.546875 C 4.992188 -8.453125 4.90625 -8.273438 4.90625 -8.015625 C 4.90625 -7.953125 4.910156 -7.890625 4.921875 -7.828125 C 4.929688 -7.773438 4.957031 -7.722656 5 -7.671875 C 5.050781 -7.628906 5.09375 -7.585938 5.125 -7.546875 C 5.15625 -7.515625 5.210938 -7.476562 5.296875 -7.4375 C 5.390625 -7.394531 5.460938 -7.363281 5.515625 -7.34375 C 5.566406 -7.320312 5.648438 -7.285156 5.765625 -7.234375 C 5.878906 -7.191406 5.960938 -7.160156 6.015625 -7.140625 C 6.078125 -7.117188 6.175781 -7.085938 6.3125 -7.046875 C 6.445312 -7.003906 6.550781 -6.976562 6.625 -6.96875 C 7.0625 -6.832031 7.441406 -6.6875 7.765625 -6.53125 C 8.097656 -6.375 8.445312 -6.160156 8.8125 -5.890625 C 9.1875 -5.617188 9.472656 -5.273438 9.671875 -4.859375 C 9.867188 -4.441406 9.96875 -3.96875 9.96875 -3.4375 C 9.96875 -0.925781 8.226562 0.328125 4.75 0.328125 C 3.957031 0.328125 3.207031 0.207031 2.5 -0.03125 C 1.789062 -0.28125 1.28125 -0.53125 0.96875 -0.78125 L 0.5 -1.15625 L 2.046875 -3.765625 C 2.160156 -3.660156 2.304688 -3.539062 2.484375 -3.40625 C 2.671875 -3.269531 3.007812 -3.082031 3.5 -2.84375 C 3.988281 -2.613281 4.410156 -2.5 4.765625 -2.5 C 5.554688 -2.5 5.953125 -2.757812 5.953125 -3.28125 C 5.953125 -3.53125 5.847656 -3.722656 5.640625 -3.859375 C 5.441406 -3.992188 5.101562 -4.144531 4.625 -4.3125 C 4.144531 -4.488281 3.769531 -4.648438 3.5 -4.796875 C 2.8125 -5.148438 2.265625 -5.550781 1.859375 -6 C 1.460938 -6.457031 1.265625 -7.054688 1.265625 -7.796875 C 1.265625 -8.910156 1.695312 -9.78125 2.5625 -10.40625 C 3.4375 -11.03125 4.609375 -11.34375 6.078125 -11.34375 Z M 6.078125 -11.34375 "/></g></g><g style="fill:#6fff90;fill-opacity:1;"><g transform="translate(247.759062, 198.015927)"><path style="stroke:none" d="M 4.875 -11.015625 L 4.875 -5.78125 C 4.875 -4.6875 5.035156 -3.910156 5.359375 -3.453125 C 5.691406 -2.992188 6.253906 -2.765625 7.046875 -2.765625 C 7.835938 -2.765625 8.394531 -2.992188 8.71875 -3.453125 C 9.050781 -3.910156 9.21875 -4.6875 9.21875 -5.78125 L 9.21875 -11.015625 L 13.015625 -11.015625 L 13.015625 -4.859375 C 13.015625 -3.023438 12.535156 -1.703125 11.578125 -0.890625 C 10.628906 -0.078125 9.117188 0.328125 7.046875 0.328125 C 4.972656 0.328125 3.457031 -0.078125 2.5 -0.890625 C 1.550781 -1.703125 1.078125 -3.023438 1.078125 -4.859375 L 1.078125 -11.015625 Z M 4.875 -11.015625 "/></g></g><g style="fill:#6fff90;fill-opacity:1;"><g transform="translate(261.854068, 198.015927)"><path style="stroke:none" d="M 1.296875 0 L 1.296875 -18.484375 L 5.09375 -18.484375 L 5.09375 0 Z M 1.296875 0 "/></g></g><g style="fill:#6fff90;fill-opacity:1;"><g transform="translate(268.23549, 198.015927)"><path style="stroke:none" d="M 1.9375 -11.015625 L 1.9375 -15.125 L 5.734375 -15.125 L 5.734375 -11.015625 L 8.0625 -11.015625 L 8.0625 -8.125 L 5.734375 -8.125 L 5.734375 -4.625 C 5.734375 -3.601562 6.019531 -3.09375 6.59375 -3.09375 C 6.738281 -3.09375 6.890625 -3.117188 7.046875 -3.171875 C 7.203125 -3.234375 7.320312 -3.296875 7.40625 -3.359375 L 7.546875 -3.4375 L 8.484375 -0.359375 C 7.671875 0.0976562 6.738281 0.328125 5.6875 0.328125 C 4.976562 0.328125 4.363281 0.203125 3.84375 -0.046875 C 3.332031 -0.304688 2.941406 -0.644531 2.671875 -1.0625 C 2.410156 -1.488281 2.222656 -1.929688 2.109375 -2.390625 C 1.992188 -2.859375 1.9375 -3.359375 1.9375 -3.890625 L 1.9375 -8.125 L 0.34375 -8.125 L 0.34375 -11.015625 Z M 1.9375 -11.015625 "/></g></g><g style="fill:#6fff90;fill-opacity:1;"><g transform="translate(276.722582, 198.015927)"><path style="stroke:none" d="M 3.734375 -4.59375 C 4.421875 -4.59375 5.003906 -4.351562 5.484375 -3.875 C 5.960938 -3.394531 6.203125 -2.8125 6.203125 -2.125 C 6.203125 -1.457031 5.960938 -0.878906 5.484375 -0.390625 C 5.003906 0.0859375 4.421875 0.328125 3.734375 0.328125 C 3.066406 0.328125 2.492188 0.0859375 2.015625 -0.390625 C 1.535156 -0.878906 1.296875 -1.457031 1.296875 -2.125 C 1.296875 -2.8125 1.535156 -3.394531 2.015625 -3.875 C 2.492188 -4.351562 3.066406 -4.59375 3.734375 -4.59375 Z M 3.734375 -4.59375 "/></g></g><g style="fill:#6fff90;fill-opacity:1;"><g transform="translate(284.221293, 198.015927)"><path style="stroke:none" d="M 2.328125 -1.296875 C 1.109375 -2.390625 0.5 -3.789062 0.5 -5.5 C 0.5 -7.207031 1.132812 -8.609375 2.40625 -9.703125 C 3.675781 -10.796875 5.253906 -11.34375 7.140625 -11.34375 C 8.984375 -11.34375 10.535156 -10.789062 11.796875 -9.6875 C 13.066406 -8.582031 13.703125 -7.1875 13.703125 -5.5 C 13.703125 -3.8125 13.082031 -2.414062 11.84375 -1.3125 C 10.601562 -0.21875 9.035156 0.328125 7.140625 0.328125 C 5.160156 0.328125 3.554688 -0.210938 2.328125 -1.296875 Z M 5.265625 -7.359375 C 4.773438 -6.878906 4.53125 -6.257812 4.53125 -5.5 C 4.53125 -4.738281 4.765625 -4.117188 5.234375 -3.640625 C 5.710938 -3.160156 6.335938 -2.921875 7.109375 -2.921875 C 7.859375 -2.921875 8.472656 -3.164062 8.953125 -3.65625 C 9.429688 -4.144531 9.671875 -4.757812 9.671875 -5.5 C 9.671875 -6.257812 9.421875 -6.878906 8.921875 -7.359375 C 8.429688 -7.847656 7.828125 -8.09375 7.109375 -8.09375 C 6.378906 -8.09375 5.765625 -7.847656 5.265625 -7.359375 Z M 5.265625 -7.359375 "/></g></g><g style="fill:#6fff90;fill-opacity:1;"><g transform="translate(298.380755, 198.015927)"><path style="stroke:none" d="M 1.296875 0 L 1.296875 -11.015625 L 5.09375 -11.015625 L 5.09375 -9.4375 L 5.140625 -9.4375 C 5.160156 -9.488281 5.203125 -9.554688 5.265625 -9.640625 C 5.335938 -9.734375 5.476562 -9.882812 5.6875 -10.09375 C 5.90625 -10.3125 6.132812 -10.503906 6.375 -10.671875 C 6.625 -10.847656 6.941406 -11.003906 7.328125 -11.140625 C 7.710938 -11.273438 8.109375 -11.34375 8.515625 -11.34375 C 8.921875 -11.34375 9.320312 -11.285156 9.71875 -11.171875 C 10.125 -11.054688 10.421875 -10.941406 10.609375 -10.828125 L 10.921875 -10.65625 L 9.328125 -7.4375 C 8.847656 -7.832031 8.1875 -8.03125 7.34375 -8.03125 C 6.882812 -8.03125 6.488281 -7.929688 6.15625 -7.734375 C 5.832031 -7.535156 5.601562 -7.289062 5.46875 -7 C 5.332031 -6.71875 5.234375 -6.472656 5.171875 -6.265625 C 5.117188 -6.066406 5.09375 -5.910156 5.09375 -5.796875 L 5.09375 0 Z M 1.296875 0 "/></g></g><g style="fill:#6fff90;fill-opacity:1;"><g transform="translate(308.909017, 198.015927)"><path style="stroke:none" d="M 0.796875 2.703125 L 3.90625 1.1875 C 4.476562 2.125 5.472656 2.59375 6.890625 2.59375 C 7.554688 2.59375 8.171875 2.378906 8.734375 1.953125 C 9.296875 1.535156 9.578125 0.890625 9.578125 0.015625 L 9.578125 -0.796875 C 8.910156 -0.046875 7.707031 0.328125 5.96875 0.328125 C 4.382812 0.328125 3.078125 -0.234375 2.046875 -1.359375 C 1.015625 -2.484375 0.5 -3.863281 0.5 -5.5 C 0.5 -7.132812 1.015625 -8.515625 2.046875 -9.640625 C 3.078125 -10.773438 4.382812 -11.34375 5.96875 -11.34375 C 7.382812 -11.34375 8.566406 -10.90625 9.515625 -10.03125 L 9.578125 -10.03125 L 9.578125 -11.015625 L 13.390625 -11.015625 L 13.390625 0.296875 C 13.390625 2.085938 12.789062 3.46875 11.59375 4.4375 C 10.40625 5.414062 8.835938 5.90625 6.890625 5.90625 C 3.742188 5.90625 1.710938 4.835938 0.796875 2.703125 Z M 5.265625 -7.359375 C 4.773438 -6.878906 4.53125 -6.257812 4.53125 -5.5 C 4.53125 -4.738281 4.765625 -4.117188 5.234375 -3.640625 C 5.710938 -3.160156 6.335938 -2.921875 7.109375 -2.921875 C 7.859375 -2.921875 8.472656 -3.164062 8.953125 -3.65625 C 9.429688 -4.144531 9.671875 -4.757812 9.671875 -5.5 C 9.671875 -6.257812 9.421875 -6.878906 8.921875 -7.359375 C 8.429488 -7.847656 7.828125 -8.09375 7.109375 -8.09375 C 6.378906 -8.09375 5.765625 -7.847656 5.265625 -7.359375 Z M 5.265625 -7.359375 "/></g></g><g clip-rule="nonzero" clip-path="url(#f531eae1bb)"><path style=" stroke:none;fill-rule:evenodd;fill:#6fff90;fill-opacity:1;" d="M 62.105469 211.605469 C 63.441406 212.648438 64.878906 213.566406 66.382812 214.355469 L 74.039062 206.703125 C 74.683594 206.058594 74.683594 204.984375 74.039062 204.335938 L 63.671875 193.96875 L 63.632812 193.933594 C 62.855469 193.050781 62.320312 192.007812 62.03125 190.898438 C 57.296875 197.234375 58.625 204.910156 62.105469 211.605469 "/></g><g clip-rule="nonzero" clip-path="url(#7cdd3c421b)"><path style=" stroke:none;fill-rule:evenodd;fill:#6fff90;fill-opacity:1;" d="M 77.886719 171.550781 C 76.035156 170.164062 73.953125 169.195312 71.621094 168.753906 C 67.675781 168 63.585938 168.824219 59.914062 170.332031 C 58.972656 170.714844 58.039062 171.15625 57.128906 171.632812 C 53.21875 176.632812 51.089844 182.753906 51.089844 189.105469 L 51.089844 189.175781 C 51.089844 195.09375 52.910156 200.808594 56.28125 205.582031 C 54.832031 199.421875 55.695312 193.289062 60.011719 188.074219 L 60.046875 188.027344 C 60.453125 187.539062 60.882812 187.082031 61.328125 186.628906 L 74.539062 173.441406 C 75.472656 172.507812 76.632812 171.859375 77.886719 171.550781 "/></g><g clip-rule="nonzero" clip-path="url(#3ea9b1b3fb)"><path style=" stroke:none;fill-rule:evenodd;fill:#6fff90;fill-opacity:1;" d="M 97.210938 187.320312 C 101.886719 181.007812 100.570312 173.320312 97.019531 166.5625 C 92.019531 162.691406 85.921875 160.609375 79.597656 160.609375 C 73.691406 160.609375 68 162.414062 63.203125 165.800781 C 66.167969 165.105469 69.230469 164.914062 72.253906 165.5 C 76.082031 166.230469 79.382812 168.105469 82.132812 170.855469 L 95.355469 184.082031 C 96.253906 184.976562 96.886719 186.101562 97.210938 187.320312 "/></g><g clip-rule="nonzero" clip-path="url(#8c937e17a1)"><path style=" stroke:none;fill-rule:evenodd;fill:#6fff90;fill-opacity:1;" d="M 92.808594 214.355469 C 102.195312 209.441406 108.089844 199.734375 108.089844 189.105469 C 108.089844 184.894531 107.171875 180.746094 105.363281 176.929688 C 104.660156 175.449219 103.835938 174.039062 102.890625 172.699219 C 104.503906 179.574219 103.226562 186.257812 97.84375 191.625 L 85.144531 204.324219 C 84.5 204.972656 84.5 206.046875 85.144531 206.691406 Z M 92.808594 214.355469 "/></g></g></svg>