<svg xmlns="http://www.w3.org/2000/svg" xmlns:xlink="http://www.w3.org/1999/xlink" width="500" zoomAndPan="magnify" viewBox="0 0 375 374.999991" height="500" preserveAspectRatio="xMidYMid meet" version="1.2"><defs><clipPath id="0d47ab6746"><path d="M 37.5 87 L 179 87 L 179 283 L 37.5 283 Z M 37.5 87 "/></clipPath><clipPath id="46144f6e61"><path d="M 214 109 L 337.5 109 L 337.5 329 L 214 329 Z M 214 109 "/></clipPath></defs><g id="7c41d87404"><rect x="0" width="375" y="0" height="374.999991" style="fill:#ffffff;fill-opacity:1;stroke:none;"/><rect x="0" width="375" y="0" height="374.999991" style="fill:#6fff90;fill-opacity:1;stroke:none;"/><path style=" stroke:none;fill-rule:evenodd;fill:#333333;fill-opacity:1;" d="M 95.460938 314.464844 C 102.507812 319.941406 110.0625 324.789062 117.992188 328.941406 L 158.269531 288.664062 C 161.667969 285.265625 161.667969 279.601562 158.269531 276.203125 L 103.707031 221.640625 L 103.515625 221.453125 C 99.425781 216.796875 96.59375 211.320312 95.082031 205.46875 C 70.160156 238.820312 77.148438 279.222656 95.460938 314.464844 "/><g clip-rule="nonzero" clip-path="url(#0d47ab6746)"><path style=" stroke:none;fill-rule:evenodd;fill:#333333;fill-opacity:1;" d="M 178.53125 103.640625 C 168.777344 96.34375 157.828125 91.246094 145.554688 88.914062 C 124.789062 84.953125 103.265625 89.292969 83.945312 97.222656 C 78.972656 99.238281 74.0625 101.566406 69.28125 104.082031 C 48.703125 130.386719 37.5 162.609375 37.5 196.027344 L 37.5 196.40625 C 37.5 227.558594 47.066406 257.636719 64.8125 282.75 C 57.199219 250.339844 61.730469 218.054688 84.449219 190.613281 L 84.636719 190.363281 C 86.777344 187.78125 89.042969 185.390625 91.371094 183 L 160.910156 113.585938 C 165.820312 108.675781 171.925781 105.277344 178.53125 103.640625 "/></g><path style=" stroke:none;fill-rule:evenodd;fill:#333333;fill-opacity:1;" d="M 280.230469 186.652344 C 304.839844 153.421875 297.914062 112.957031 279.222656 77.398438 C 252.917969 57.007812 220.824219 46.058594 187.53125 46.058594 C 156.441406 46.058594 126.488281 55.5625 101.25 73.371094 C 116.859375 69.722656 132.96875 68.714844 148.890625 71.796875 C 169.027344 75.636719 186.398438 85.519531 200.875 99.992188 L 270.476562 169.59375 C 275.195312 174.316406 278.53125 180.230469 280.230469 186.652344 "/><g clip-rule="nonzero" clip-path="url(#46144f6e61)"><path style=" stroke:none;fill-rule:evenodd;fill:#333333;fill-opacity:1;" d="M 257.070312 328.941406 C 306.472656 303.074219 337.5 251.972656 337.5 196.027344 C 337.5 173.875 332.652344 152.039062 323.152344 131.960938 C 319.4375 124.160156 315.097656 116.730469 310.125 109.683594 C 318.621094 145.871094 311.886719 181.050781 283.566406 209.304688 L 216.730469 276.140625 C 213.332031 279.539062 213.332031 285.203125 216.730469 288.601562 Z M 257.070312 328.941406 "/></g></g></svg>